<svg xmlns="http://www.w3.org/2000/svg" width="45" height="43" fill="none" viewBox="0 0 45 43"><path fill="#22FF84" d="M21.2659 42.2067C20.9342 42.797 20.163 42.965 19.6137 42.5665L0.465308 28.6398C0.172341 28.4265 0 28.0862 0 27.7243V10.939C0 10.0148 1.04907 9.48061 1.79657 10.0235L13.5088 18.541C14.6031 19.3381 16.1476 18.9999 16.8111 17.8215L26.5113 0.577439C26.7117 0.222001 27.0887 0.00012207 27.498 0.00012207H43.0726C43.9385 0.00012207 44.4836 0.932876 44.0592 1.68683L21.2659 42.2046V42.2067Z"/><mask id="mask0_2002_17204" style="mask-type:alpha" width="45" height="43" x="0" y="0" maskUnits="userSpaceOnUse"><path fill="#000" d="M21.2659 42.2066C20.9342 42.7968 20.163 42.9649 19.6137 42.5663L0.465308 28.6397C0.172341 28.4264 0 28.086 0 27.7241V10.9389C0 10.0147 1.04907 9.48049 1.79657 10.0233L13.5088 18.5409C14.6031 19.338 16.1476 18.9998 16.8111 17.8214L26.5113 0.577317C26.7117 0.221879 27.0887 0 27.498 0H43.0726C43.9385 0 44.4836 0.932754 44.0592 1.68671L21.2659 42.2044V42.2066Z"/></mask><g mask="url(#mask0_2002_17204)"><g filter="url(#filter0_f_2002_17204)"><ellipse cx="14.031" cy="3.391" fill="#00CCC6" rx="14.031" ry="3.391" transform="matrix(-0.650066 0.759878 0.759879 0.650065 32.5093 -3.61884)"/></g><g filter="url(#filter1_f_2002_17204)"><ellipse cx="14.031" cy="6.087" fill="#00CCC6" rx="14.031" ry="6.087" transform="matrix(-0.588245 -0.808682 -0.808682 0.588246 16.1094 37.5068)"/></g><g filter="url(#filter2_f_2002_17204)"><ellipse cx="6.443" cy="12.195" fill="#7F0" rx="6.374" ry="5.551" transform="rotate(23.1293 6.44313 12.1953)"/></g><g filter="url(#filter3_f_2002_17204)"><ellipse cx="40.775" cy="15.951" fill="#7F0" rx="5.615" ry="24.534" transform="rotate(23.1293 40.7746 15.9509)"/></g><g filter="url(#filter4_f_2002_17204)"><ellipse cx="4.985" cy="10.069" fill="#97FFE2" rx="4.985" ry="10.069" transform="matrix(0.707107 -0.707107 -0.707107 -0.707107 39.4482 10.9414)"/></g></g><defs><filter id="filter0_f_2002_17204" width="37.343" height="40.162" x="7.293" y="-10.833" color-interpolation-filters="sRGB" filterUnits="userSpaceOnUse"><feFlood flood-opacity="0" result="BackgroundImageFix"/><feBlend in="SourceGraphic" in2="BackgroundImageFix" mode="normal" result="shape"/><feGaussianBlur result="effect1_foregroundBlur_2002_17204" stdDeviation="4.596"/></filter><filter id="filter1_f_2002_17204" width="37.605" height="42.185" x="-15.869" y="8.648" color-interpolation-filters="sRGB" filterUnits="userSpaceOnUse"><feFlood flood-opacity="0" result="BackgroundImageFix"/><feBlend in="SourceGraphic" in2="BackgroundImageFix" mode="normal" result="shape"/><feGaussianBlur result="effect1_foregroundBlur_2002_17204" stdDeviation="4.596"/></filter><filter id="filter2_f_2002_17204" width="30.894" height="29.756" x="-9.004" y="-2.683" color-interpolation-filters="sRGB" filterUnits="userSpaceOnUse"><feFlood flood-opacity="0" result="BackgroundImageFix"/><feBlend in="SourceGraphic" in2="BackgroundImageFix" mode="normal" result="shape"/><feGaussianBlur result="effect1_foregroundBlur_2002_17204" stdDeviation="4.596"/></filter><filter id="filter3_f_2002_17204" width="40.253" height="63.725" x="20.648" y="-15.912" color-interpolation-filters="sRGB" filterUnits="userSpaceOnUse"><feFlood flood-opacity="0" result="BackgroundImageFix"/><feBlend in="SourceGraphic" in2="BackgroundImageFix" mode="normal" result="shape"/><feGaussianBlur result="effect1_foregroundBlur_2002_17204" stdDeviation="4.596"/></filter><filter id="filter4_f_2002_17204" width="34.276" height="34.275" x="18.716" y="-16.841" color-interpolation-filters="sRGB" filterUnits="userSpaceOnUse"><feFlood flood-opacity="0" result="BackgroundImageFix"/><feBlend in="SourceGraphic" in2="BackgroundImageFix" mode="normal" result="shape"/><feGaussianBlur result="effect1_foregroundBlur_2002_17204" stdDeviation="4.596"/></filter></defs></svg>