<svg xmlns="http://www.w3.org/2000/svg" width="48" height="46" fill="none" viewBox="0 0 48 46"><path fill="#9135FF" d="M25.9456 44.9383C25.2821 45.7827 23.925 45.3131 23.925 44.2403V33.9369C23.925 32.6875 22.9126 31.6751 21.6631 31.6751H10.287C9.36714 31.6751 8.83075 30.6346 9.36713 29.8871L16.8464 19.4157C17.917 17.9185 16.8464 15.8376 15.0046 15.8376H1.23731C0.317479 15.8376 -0.218913 14.7972 0.317475 14.0497L10.0134 0.4741C10.2266 0.176825 10.5692 0.000183105 10.9332 0.000183105H39.8271C40.7469 0.000183105 41.2833 1.04065 40.7469 1.78814L33.2676 12.2595C32.197 13.7567 33.2676 15.8376 35.1094 15.8376H46.4856C47.4291 15.8376 47.959 16.9255 47.3753 17.6687L25.9478 44.9404L25.9456 44.9383Z"/><mask id="mask0_2002_17158" style="mask-type:alpha" width="48" height="46" x="0" y="0" maskUnits="userSpaceOnUse"><path fill="#000" d="M25.8416 44.9381C25.1781 45.7825 23.821 45.3129 23.821 44.2401V33.9368C23.821 32.6873 22.8085 31.6749 21.5591 31.6749H10.183C9.26313 31.6749 8.72674 30.6344 9.26313 29.8869L16.7424 19.4155C17.813 17.9184 16.7424 15.8374 14.9006 15.8374H1.1333C0.213475 15.8374 -0.322917 14.797 0.213471 14.0495L9.90938 0.473917C10.1226 0.176641 10.4652 0 10.8292 0H39.7231C40.6429 0 41.1793 1.04046 40.6429 1.78796L33.1636 12.2594C32.093 13.7565 33.1636 15.8374 35.0054 15.8374H46.3816C47.3251 15.8374 47.855 16.9253 47.2713 17.6685L25.8438 44.9402L25.8416 44.9381Z"/></mask><g mask="url(#mask0_2002_17158)"><g filter="url(#filter0_f_2002_17158)"><ellipse cx="5.508" cy="14.704" fill="#EEE6FF" rx="5.508" ry="14.704" transform="matrix(0.00324134 0.999995 0.999995 -0.00324134 -4.46924 31.5157)"/></g><g filter="url(#filter1_f_2002_17158)"><ellipse cx="10.399" cy="29.851" fill="#EEE6FF" rx="10.399" ry="29.851" transform="matrix(0.00324134 0.999995 0.999995 -0.00324134 -39.3281 7.88272)"/></g><g filter="url(#filter2_f_2002_17158)"><ellipse cx="5.508" cy="30.487" fill="#8900FF" rx="5.508" ry="30.487" transform="matrix(0.00324134 0.999995 0.999995 -0.00324134 -40.4673 11.3212)"/></g><g filter="url(#filter3_f_2002_17158)"><ellipse cx="5.508" cy="30.599" fill="#8900FF" rx="5.508" ry="30.599" transform="matrix(0.00324134 0.999995 0.999995 -0.00324134 -35.8721 29.3204)"/></g><g filter="url(#filter4_f_2002_17158)"><ellipse cx="5.508" cy="30.599" fill="#8900FF" rx="5.508" ry="30.599" transform="matrix(0.00324134 0.999995 0.999995 -0.00324134 -34.3398 30.4693)"/></g><g filter="url(#filter5_f_2002_17158)"><ellipse cx="14.072" cy="22.078" fill="#EEE6FF" rx="14.072" ry="22.078" transform="matrix(0.0584509 -0.99829 -0.99829 -0.0584509 74.3486 26.8633)"/></g><g filter="url(#filter6_f_2002_17158)"><ellipse cx="3.47" cy="21.501" fill="#8900FF" rx="3.47" ry="21.501" transform="matrix(-0.0172986 -0.99985 -0.99985 0.0172986 75.7944 18.0627)"/></g><g filter="url(#filter7_f_2002_17158)"><ellipse cx="3.47" cy="21.501" fill="#8900FF" rx="3.47" ry="21.501" transform="matrix(-0.0172986 -0.99985 -0.99985 0.0172986 75.7944 18.0627)"/></g><g filter="url(#filter8_f_2002_17158)"><ellipse cx=".387" cy="8.972" fill="#8900FF" rx="4.407" ry="29.108" transform="rotate(39.5103 0.386861 8.97156)"/></g><g filter="url(#filter9_f_2002_17158)"><ellipse cx="47.523" cy="-6.092" fill="#8900FF" rx="4.407" ry="29.108" transform="rotate(37.8923 47.5226 -6.09166)"/></g><g filter="url(#filter10_f_2002_17158)"><ellipse cx="41.412" cy="6.333" fill="#00C2FF" rx="5.971" ry="9.665" transform="rotate(37.8923 41.4121 6.3335)"/></g><g filter="url(#filter11_f_2002_17158)"><ellipse cx="-1.879" cy="38.332" fill="#8900FF" rx="4.407" ry="29.108" transform="rotate(37.8923 -1.87921 38.3321)"/></g><g filter="url(#filter12_f_2002_17158)"><ellipse cx="-1.879" cy="38.332" fill="#8900FF" rx="4.407" ry="29.108" transform="rotate(37.8923 -1.87921 38.3321)"/></g><g filter="url(#filter13_f_2002_17158)"><ellipse cx="35.651" cy="29.907" fill="#8900FF" rx="4.407" ry="29.108" transform="rotate(37.8923 35.6511 29.9069)"/></g><g filter="url(#filter14_f_2002_17158)"><ellipse cx="38.418" cy="32.4" fill="#00C2FF" rx="5.971" ry="15.297" transform="rotate(37.8923 38.4178 32.4)"/></g></g><defs><filter id="filter0_f_2002_17158" width="60.045" height="41.654" x="-19.77" y="16.149" color-interpolation-filters="sRGB" filterUnits="userSpaceOnUse"><feFlood flood-opacity="0" result="BackgroundImageFix"/><feBlend in="SourceGraphic" in2="BackgroundImageFix" mode="normal" result="shape"/><feGaussianBlur result="effect1_foregroundBlur_2002_17158" stdDeviation="7.659"/></filter><filter id="filter1_f_2002_17158" width="90.34" height="51.437" x="-54.613" y="-7.533" color-interpolation-filters="sRGB" filterUnits="userSpaceOnUse"><feFlood flood-opacity="0" result="BackgroundImageFix"/><feBlend in="SourceGraphic" in2="BackgroundImageFix" mode="normal" result="shape"/><feGaussianBlur result="effect1_foregroundBlur_2002_17158" stdDeviation="7.659"/></filter><filter id="filter2_f_2002_17158" width="79.355" height="29.4" x="-49.64" y="2.03" color-interpolation-filters="sRGB" filterUnits="userSpaceOnUse"><feFlood flood-opacity="0" result="BackgroundImageFix"/><feBlend in="SourceGraphic" in2="BackgroundImageFix" mode="normal" result="shape"/><feGaussianBlur result="effect1_foregroundBlur_2002_17158" stdDeviation="4.596"/></filter><filter id="filter3_f_2002_17158" width="79.579" height="29.4" x="-45.045" y="20.029" color-interpolation-filters="sRGB" filterUnits="userSpaceOnUse"><feFlood flood-opacity="0" result="BackgroundImageFix"/><feBlend in="SourceGraphic" in2="BackgroundImageFix" mode="normal" result="shape"/><feGaussianBlur result="effect1_foregroundBlur_2002_17158" stdDeviation="4.596"/></filter><filter id="filter4_f_2002_17158" width="79.579" height="29.4" x="-43.513" y="21.178" color-interpolation-filters="sRGB" filterUnits="userSpaceOnUse"><feFlood flood-opacity="0" result="BackgroundImageFix"/><feBlend in="SourceGraphic" in2="BackgroundImageFix" mode="normal" result="shape"/><feGaussianBlur result="effect1_foregroundBlur_2002_17158" stdDeviation="4.596"/></filter><filter id="filter5_f_2002_17158" width="74.749" height="58.852" x="15.756" y="-17.901" color-interpolation-filters="sRGB" filterUnits="userSpaceOnUse"><feFlood flood-opacity="0" result="BackgroundImageFix"/><feBlend in="SourceGraphic" in2="BackgroundImageFix" mode="normal" result="shape"/><feGaussianBlur result="effect1_foregroundBlur_2002_17158" stdDeviation="7.659"/></filter><filter id="filter6_f_2002_17158" width="61.377" height="25.362" x="23.548" y="2.284" color-interpolation-filters="sRGB" filterUnits="userSpaceOnUse"><feFlood flood-opacity="0" result="BackgroundImageFix"/><feBlend in="SourceGraphic" in2="BackgroundImageFix" mode="normal" result="shape"/><feGaussianBlur result="effect1_foregroundBlur_2002_17158" stdDeviation="4.596"/></filter><filter id="filter7_f_2002_17158" width="61.377" height="25.362" x="23.548" y="2.284" color-interpolation-filters="sRGB" filterUnits="userSpaceOnUse"><feFlood flood-opacity="0" result="BackgroundImageFix"/><feBlend in="SourceGraphic" in2="BackgroundImageFix" mode="normal" result="shape"/><feGaussianBlur result="effect1_foregroundBlur_2002_17158" stdDeviation="4.596"/></filter><filter id="filter8_f_2002_17158" width="56.045" height="63.649" x="-27.636" y="-22.853" color-interpolation-filters="sRGB" filterUnits="userSpaceOnUse"><feFlood flood-opacity="0" result="BackgroundImageFix"/><feBlend in="SourceGraphic" in2="BackgroundImageFix" mode="normal" result="shape"/><feGaussianBlur result="effect1_foregroundBlur_2002_17158" stdDeviation="4.596"/></filter><filter id="filter9_f_2002_17158" width="54.814" height="64.646" x="20.116" y="-38.415" color-interpolation-filters="sRGB" filterUnits="userSpaceOnUse"><feFlood flood-opacity="0" result="BackgroundImageFix"/><feBlend in="SourceGraphic" in2="BackgroundImageFix" mode="normal" result="shape"/><feGaussianBlur result="effect1_foregroundBlur_2002_17158" stdDeviation="4.596"/></filter><filter id="filter10_f_2002_17158" width="33.541" height="35.313" x="24.641" y="-11.323" color-interpolation-filters="sRGB" filterUnits="userSpaceOnUse"><feFlood flood-opacity="0" result="BackgroundImageFix"/><feBlend in="SourceGraphic" in2="BackgroundImageFix" mode="normal" result="shape"/><feGaussianBlur result="effect1_foregroundBlur_2002_17158" stdDeviation="4.596"/></filter><filter id="filter11_f_2002_17158" width="54.814" height="64.646" x="-29.286" y="6.009" color-interpolation-filters="sRGB" filterUnits="userSpaceOnUse"><feFlood flood-opacity="0" result="BackgroundImageFix"/><feBlend in="SourceGraphic" in2="BackgroundImageFix" mode="normal" result="shape"/><feGaussianBlur result="effect1_foregroundBlur_2002_17158" stdDeviation="4.596"/></filter><filter id="filter12_f_2002_17158" width="54.814" height="64.646" x="-29.286" y="6.009" color-interpolation-filters="sRGB" filterUnits="userSpaceOnUse"><feFlood flood-opacity="0" result="BackgroundImageFix"/><feBlend in="SourceGraphic" in2="BackgroundImageFix" mode="normal" result="shape"/><feGaussianBlur result="effect1_foregroundBlur_2002_17158" stdDeviation="4.596"/></filter><filter id="filter13_f_2002_17158" width="54.814" height="64.646" x="8.244" y="-2.416" color-interpolation-filters="sRGB" filterUnits="userSpaceOnUse"><feFlood flood-opacity="0" result="BackgroundImageFix"/><feBlend in="SourceGraphic" in2="BackgroundImageFix" mode="normal" result="shape"/><feGaussianBlur result="effect1_foregroundBlur_2002_17158" stdDeviation="4.596"/></filter><filter id="filter14_f_2002_17158" width="39.409" height="43.623" x="18.713" y="10.588" color-interpolation-filters="sRGB" filterUnits="userSpaceOnUse"><feFlood flood-opacity="0" result="BackgroundImageFix"/><feBlend in="SourceGraphic" in2="BackgroundImageFix" mode="normal" result="shape"/><feGaussianBlur result="effect1_foregroundBlur_2002_17158" stdDeviation="4.596"/></filter></defs></svg>